<?xml version='1.0' encoding='iso-8859-1'?>
<!DOCTYPE svg PUBLIC '-//W3C//DTD SVG 1.1//EN' 'http://www.w3.org/Graphics/SVG/1.1/DTD/svg11.dtd'>
<svg version="1.1" xmlns="http://www.w3.org/2000/svg" viewBox="0 0 512 512" xmlns:xlink="http://www.w3.org/1999/xlink" enable-background="new 0 0 512 512" width="25px" height="25px" fill="white">
  <g>
    <path d="m224,128h64c8.836,0 16-7.164 16-16v-64c0-26.512-21.492-48-48-48s-48,21.488-48,48v64c0,8.836 7.164,16 16,16zm32-96c8.836,0 16,7.162 16,16 0,8.836-7.164,16-16,16s-16-7.164-16-16c0-8.838 7.164-16 16-16z"/>
    <path d="m416,32h-80v96c0,17.672-14.328,32-32,32h-96c-17.672,0-32-14.328-32-32v-96h-80c-17.672,0-32,14.326-32,32v416c0,17.672 14.328,32 32,32h320c17.672,0 32-14.328 32-32v-416c0-17.674-14.328-32-32-32zm-240,400c-8.836,0-16-7.164-16-16s7.164-16 16-16 16,7.164 16,16-7.164,16-16,16zm0-64c-8.836,0-16-7.164-16-16s7.164-16 16-16 16,7.164 16,16-7.164,16-16,16zm0-64c-8.836,0-16-7.164-16-16s7.164-16 16-16 16,7.164 16,16-7.164,16-16,16zm0-64c-8.836,0-16-7.164-16-16s7.164-16 16-16 16,7.164 16,16-7.164,16-16,16zm160,192h-96c-8.836,0-16-7.164-16-16s7.164-16 16-16h96c8.836,0 16,7.164 16,16s-7.164,16-16,16zm0-64h-96c-8.836,0-16-7.164-16-16s7.164-16 16-16h96c8.836,0 16,7.164 16,16s-7.164,16-16,16zm0-64h-96c-8.836,0-16-7.164-16-16s7.164-16 16-16h96c8.836,0 16,7.164 16,16s-7.164,16-16,16zm0-64h-96c-8.836,0-16-7.164-16-16s7.164-16 16-16h96c8.836,0 16,7.164 16,16s-7.164,16-16,16z"/>
  </g>
</svg>
